<svg width="25" height="25" viewBox="0 0 25 25" fill="none" xmlns="http://www.w3.org/2000/svg">
<mask id="mask0_36_1704" style="mask-type:alpha" maskUnits="userSpaceOnUse" x="0" y="0" width="25" height="25">
<rect x="0.76709" y="0.633667" width="24" height="24" fill="#D9D9D9"/>
</mask>
<g mask="url(#mask0_36_1704)">
<path d="M12.2671 14.1337H13.2671V11.1337H16.2671V10.1337H13.2671V7.13367H12.2671V10.1337H9.26709V11.1337H12.2671V14.1337ZM12.7671 20.8837C14.8504 19.067 16.4544 17.2503 17.5791 15.4337C18.7044 13.617 19.2671 12.0837 19.2671 10.8337C19.2671 8.867 18.6381 7.25867 17.3801 6.00867C16.1214 4.75867 14.5838 4.13367 12.7671 4.13367C10.9504 4.13367 9.41309 4.75867 8.15509 6.00867C6.89642 7.25867 6.26709 8.867 6.26709 10.8337C6.26709 12.0837 6.82976 13.617 7.95509 15.4337C9.07976 17.2503 10.6838 19.067 12.7671 20.8837ZM12.7671 22.2587C10.2338 20.0087 8.35042 17.9253 7.11709 16.0087C5.88376 14.092 5.26709 12.367 5.26709 10.8337C5.26709 8.48367 6.02142 6.613 7.53009 5.22167C9.03809 3.82967 10.7838 3.13367 12.7671 3.13367C14.7504 3.13367 16.4964 3.82967 18.0051 5.22167C19.5131 6.613 20.2671 8.48367 20.2671 10.8337C20.2671 12.367 19.6504 14.092 18.4171 16.0087C17.1838 17.9253 15.3004 20.0087 12.7671 22.2587Z" fill="#1C1B1F"/>
</g>
</svg>
