<svg width="44" height="64" viewBox="0 0 44 64" fill="none" xmlns="http://www.w3.org/2000/svg">
<path d="M22 49C28.0555 44.2222 32.6255 39.6389 35.71 35.25C38.7922 30.8611 40.3333 26.6111 40.3333 22.5C40.3333 19.1111 39.7089 16.2078 38.46 13.79C37.2089 11.3744 35.6533 9.41667 33.7933 7.91667C31.9311 6.41667 29.9444 5.33334 27.8333 4.66667C25.7222 4 23.7778 3.66667 22 3.66667C20.2222 3.66667 18.2778 4 16.1666 4.66667C14.0555 5.33334 12.07 6.41667 10.21 7.91667C8.34776 9.41667 6.79109 11.3744 5.53998 13.79C4.29109 16.2078 3.66665 19.1111 3.66665 22.5C3.66665 26.6111 5.20887 30.8611 8.29331 35.25C11.3755 39.6389 15.9444 44.2222 22 49ZM22 53.25C14.7222 47.8056 9.29109 42.5278 5.70665 37.4167C2.12442 32.3056 0.333313 27.3333 0.333313 22.5C0.333313 18.8333 0.986646 15.6244 2.29331 12.8733C3.59776 10.1244 5.2922 7.81889 7.37665 5.95667C9.45887 4.09667 11.7778 2.69445 14.3333 1.75C16.8889 0.805558 19.4444 0.333336 22 0.333336C24.5555 0.333336 27.1111 0.805558 29.6666 1.75C32.2222 2.69445 34.5411 4.09667 36.6233 5.95667C38.7078 7.81889 40.4033 10.1244 41.71 12.8733C43.0144 15.6244 43.6666 18.8333 43.6666 22.5C43.6666 27.3333 41.8744 32.3056 38.29 37.4167C34.7078 42.5278 29.2778 47.8056 22 53.25ZM22 27C23.3889 27 24.5689 26.5133 25.54 25.54C26.5133 24.5689 27 23.3889 27 22C27 20.6111 26.5133 19.4311 25.54 18.46C24.5689 17.4867 23.3889 17 22 17C20.6111 17 19.4311 17.4867 18.46 18.46C17.4866 19.4311 17 20.6111 17 22C17 23.3889 17.4866 24.5689 18.46 25.54C19.4311 26.5133 20.6111 27 22 27ZM0.333313 63.6667V60.3333H43.6666V63.6667H0.333313Z" fill="#1C1B1F"/>
</svg>
