<svg width="54" height="61" viewBox="0 0 54 61" fill="none" xmlns="http://www.w3.org/2000/svg">
<path d="M27 38.1667C26.3333 38.1667 25.7367 37.9167 25.21 37.4167C24.6811 36.9167 24.4167 36.3056 24.4167 35.5833C24.4167 34.9167 24.6811 34.3333 25.21 33.8333C25.7367 33.3333 26.3333 33.0833 27 33.0833C27.6667 33.0833 28.2644 33.3333 28.7933 33.8333C29.32 34.3333 29.5833 34.9167 29.5833 35.5833C29.5833 36.3056 29.32 36.9167 28.7933 37.4167C28.2644 37.9167 27.6667 38.1667 27 38.1667ZM13.6667 38.1667C13 38.1667 12.4033 37.9167 11.8767 37.4167C11.3478 36.9167 11.0833 36.3056 11.0833 35.5833C11.0833 34.9167 11.3478 34.3333 11.8767 33.8333C12.4033 33.3333 13 33.0833 13.6667 33.0833C14.3333 33.0833 14.9311 33.3333 15.46 33.8333C15.9867 34.3333 16.25 34.9167 16.25 35.5833C16.25 36.3056 15.9867 36.9167 15.46 37.4167C14.9311 37.9167 14.3333 38.1667 13.6667 38.1667ZM40.3333 38.1667C39.6667 38.1667 39.07 37.9167 38.5433 37.4167C38.0144 36.9167 37.75 36.3056 37.75 35.5833C37.75 34.9167 38.0144 34.3333 38.5433 33.8333C39.07 33.3333 39.6667 33.0833 40.3333 33.0833C41 33.0833 41.5978 33.3333 42.1267 33.8333C42.6533 34.3333 42.9167 34.9167 42.9167 35.5833C42.9167 36.3056 42.6533 36.9167 42.1267 37.4167C41.5978 37.9167 41 38.1667 40.3333 38.1667ZM27 51C26.3333 51 25.7367 50.75 25.21 50.25C24.6811 49.75 24.4167 49.1389 24.4167 48.4167C24.4167 47.75 24.6811 47.1533 25.21 46.6267C25.7367 46.0978 26.3333 45.8333 27 45.8333C27.6667 45.8333 28.2644 46.0978 28.7933 46.6267C29.32 47.1533 29.5833 47.75 29.5833 48.4167C29.5833 49.1389 29.32 49.75 28.7933 50.25C28.2644 50.75 27.6667 51 27 51ZM13.6667 51C13 51 12.4033 50.75 11.8767 50.25C11.3478 49.75 11.0833 49.1389 11.0833 48.4167C11.0833 47.75 11.3478 47.1533 11.8767 46.6267C12.4033 46.0978 13 45.8333 13.6667 45.8333C14.3333 45.8333 14.9311 46.0978 15.46 46.6267C15.9867 47.1533 16.25 47.75 16.25 48.4167C16.25 49.1389 15.9867 49.75 15.46 50.25C14.9311 50.75 14.3333 51 13.6667 51ZM40.3333 51C39.6667 51 39.07 50.75 38.5433 50.25C38.0144 49.75 37.75 49.1389 37.75 48.4167C37.75 47.75 38.0144 47.1533 38.5433 46.6267C39.07 46.0978 39.6667 45.8333 40.3333 45.8333C41 45.8333 41.5978 46.0978 42.1267 46.6267C42.6533 47.1533 42.9167 47.75 42.9167 48.4167C42.9167 49.1389 42.6533 49.75 42.1267 50.25C41.5978 50.75 41 51 40.3333 51ZM5.75 61C4.19444 61 2.90333 60.4867 1.87666 59.46C0.847776 58.4311 0.333332 57.1389 0.333332 55.5833V13.0833C0.333332 11.5278 0.847776 10.2367 1.87666 9.21C2.90333 8.18111 4.19444 7.66667 5.75 7.66667H11.5833V0.25H15.1667V7.66667H39.0833V0.25H42.4167V7.66667H48.25C49.8056 7.66667 51.0978 8.18111 52.1267 9.21C53.1533 10.2367 53.6667 11.5278 53.6667 13.0833V55.5833C53.6667 57.1389 53.1533 58.4311 52.1267 59.46C51.0978 60.4867 49.8056 61 48.25 61H5.75ZM5.75 57.6667H48.25C48.8056 57.6667 49.2911 57.4578 49.7067 57.04C50.1244 56.6244 50.3333 56.1389 50.3333 55.5833V26.4167H3.66667V55.5833C3.66667 56.1389 3.87555 56.6244 4.29333 57.04C4.70889 57.4578 5.19444 57.6667 5.75 57.6667ZM3.66667 23.0833H50.3333V13.0833C50.3333 12.5278 50.1244 12.0422 49.7067 11.6267C49.2911 11.2089 48.8056 11 48.25 11H5.75C5.19444 11 4.70889 11.2089 4.29333 11.6267C3.87555 12.0422 3.66667 12.5278 3.66667 13.0833V23.0833Z" fill="#1C1B1F"/>
</svg>
