<svg width="24" height="24" viewBox="0 0 24 24" fill="none" xmlns="http://www.w3.org/2000/svg">
<mask id="mask0_19_124" style="mask-type:alpha" maskUnits="userSpaceOnUse" x="0" y="0" width="24" height="24">
<rect width="24" height="24" fill="#D9D9D9"/>
</mask>
<g mask="url(#mask0_19_124)">
<path d="M8.62498 19H15.375C15.5416 19 15.6873 18.9373 15.812 18.812C15.9373 18.6873 16 18.5417 16 18.375V9H7.99998V18.375C7.99998 18.5417 8.06264 18.6873 8.18798 18.812C8.31264 18.9373 8.45831 19 8.62498 19ZM6.22498 6.625V5.625H8.69998L9.69998 4.625H14.3L15.3 5.625H17.775V6.625H6.22498ZM8.62498 20C8.15831 20 7.77098 19.846 7.46298 19.538C7.15431 19.2293 6.99998 18.8417 6.99998 18.375V8H17V18.375C17 18.8417 16.846 19.2293 16.538 19.538C16.2293 19.846 15.8416 20 15.375 20H8.62498ZM7.99998 19H16C16 19 15.9373 19 15.812 19C15.6873 19 15.5416 19 15.375 19H8.62498C8.45831 19 8.31264 19 8.18798 19C8.06264 19 7.99998 19 7.99998 19Z" fill="black" fill-opacity="0.6"/>
</g>
</svg>
