<svg width="25" height="25" viewBox="0 0 25 25" fill="none" xmlns="http://www.w3.org/2000/svg">
<mask id="mask0_36_2596" style="mask-type:alpha" maskUnits="userSpaceOnUse" x="0" y="0" width="25" height="25">
<rect x="0.76709" y="0.633698" width="24" height="24" fill="#D9D9D9"/>
</mask>
<g mask="url(#mask0_36_2596)">
<path d="M9.39219 19.6337H16.1422C16.3089 19.6337 16.4545 19.571 16.5792 19.4457C16.7045 19.321 16.7672 19.1754 16.7672 19.0087V9.6337H8.76719V19.0087C8.76719 19.1754 8.82985 19.321 8.95519 19.4457C9.07985 19.571 9.22552 19.6337 9.39219 19.6337ZM6.99219 7.2587V6.2587H9.46719L10.4672 5.2587H15.0672L16.0672 6.2587H18.5422V7.2587H6.99219ZM9.39219 20.6337C8.92552 20.6337 8.53819 20.4797 8.23019 20.1717C7.92152 19.863 7.76719 19.4754 7.76719 19.0087V8.6337H17.7672V19.0087C17.7672 19.4754 17.6132 19.863 17.3052 20.1717C16.9965 20.4797 16.6089 20.6337 16.1422 20.6337H9.39219ZM8.76719 19.6337H16.7672C16.7672 19.6337 16.7045 19.6337 16.5792 19.6337C16.4545 19.6337 16.3089 19.6337 16.1422 19.6337H9.39219C9.22552 19.6337 9.07985 19.6337 8.95519 19.6337C8.82985 19.6337 8.76719 19.6337 8.76719 19.6337Z" fill="#1C1B1F"/>
</g>
</svg>
