<svg width="24" height="24" viewBox="0 0 24 24" fill="none" xmlns="http://www.w3.org/2000/svg">
<mask id="mask0_19_118" style="mask-type:alpha" maskUnits="userSpaceOnUse" x="0" y="0" width="24" height="24">
<rect width="24" height="24" fill="#D9D9D9"/>
</mask>
<g mask="url(#mask0_19_118)">
<path d="M5.30005 19H6.37505L16.775 8.6L16.25 8.05L15.7 7.525L5.30005 17.925V19ZM4.30005 20V17.5L17.15 4.675C17.3334 4.475 17.5667 4.375 17.85 4.375C18.1334 4.375 18.375 4.475 18.575 4.675L19.625 5.75C19.825 5.95 19.925 6.18767 19.925 6.463C19.925 6.73767 19.825 6.975 19.625 7.175L6.80005 20H4.30005ZM16.775 8.6L16.25 8.05L15.7 7.525L16.775 8.6Z" fill="black" fill-opacity="0.6"/>
</g>
</svg>
