<svg width="25" height="25" viewBox="0 0 25 25" fill="none" xmlns="http://www.w3.org/2000/svg">
<mask id="mask0_36_2488" style="mask-type:alpha" maskUnits="userSpaceOnUse" x="0" y="0" width="25" height="25">
<rect x="0.76709" y="0.633667" width="24" height="24" fill="#D9D9D9"/>
</mask>
<g mask="url(#mask0_36_2488)">
<path d="M12.6421 10.7587H13.5171L18.7921 5.48367L17.9171 4.60867L12.6421 9.88367V10.7587ZM19.4921 4.78367L20.0421 4.23367C20.1588 4.117 20.2298 3.996 20.2551 3.87067C20.2798 3.746 20.2338 3.62533 20.1171 3.50867L19.8921 3.28367C19.7754 3.167 19.6544 3.121 19.5291 3.14567C19.4044 3.171 19.2838 3.242 19.1671 3.35867L18.6171 3.90867L19.4921 4.78367ZM12.7671 22.2587C10.2338 20.0087 8.35042 17.9253 7.11709 16.0087C5.88376 14.092 5.26709 12.367 5.26709 10.8337C5.26709 8.48367 6.02142 6.613 7.53009 5.22167C9.03809 3.82967 10.7838 3.13367 12.7671 3.13367C13.3171 3.13367 13.8548 3.192 14.3801 3.30867C14.9048 3.42533 15.4088 3.592 15.8921 3.80867L15.1171 4.58367C14.7504 4.43367 14.3714 4.321 13.9801 4.24567C13.5881 4.171 13.1838 4.13367 12.7671 4.13367C10.9504 4.13367 9.41309 4.75867 8.15509 6.00867C6.89642 7.25867 6.26709 8.867 6.26709 10.8337C6.26709 12.0837 6.82976 13.617 7.95509 15.4337C9.07976 17.2503 10.6838 19.067 12.7671 20.8837C14.8504 19.067 16.4544 17.2503 17.5791 15.4337C18.7044 13.617 19.2671 12.0837 19.2671 10.8337C19.2671 10.3837 19.2254 9.946 19.1421 9.52067C19.0588 9.096 18.9421 8.692 18.7921 8.30867L19.5671 7.53367C19.8004 8.017 19.9754 8.53367 20.0921 9.08367C20.2088 9.63367 20.2671 10.217 20.2671 10.8337C20.2671 12.367 19.6504 14.092 18.4171 16.0087C17.1838 17.9253 15.3004 20.0087 12.7671 22.2587Z" fill="#1C1B1F"/>
</g>
</svg>
