<svg width="20" height="20" viewBox="0 0 20 20" fill="none" xmlns="http://www.w3.org/2000/svg">
<path d="M3.33331 5.83333H15C15.9208 5.83333 16.6666 6.57916 16.6666 7.5V16.6667C16.6666 17.5875 15.9208 18.3333 15 18.3333H4.99998C4.07915 18.3333 3.33331 17.5875 3.33331 16.6667V5.87583C3.33331 5.14 3.81581 4.49166 4.51998 4.28L13.0933 1.70333C13.6283 1.54166 14.1666 1.9425 14.1666 2.50083V5.83333" stroke="black" stroke-opacity="0.6" stroke-width="1.5" stroke-linecap="round" stroke-linejoin="round"/>
<path fill-rule="evenodd" clip-rule="evenodd" d="M11.4375 9.16666C12.6717 9.16666 13.5 10.2533 13.5 11.265C13.5 13.3183 10.0625 15 10 15C9.9375 15 6.5 13.3183 6.5 11.265C6.5 10.2533 7.32833 9.16666 8.5625 9.16666C9.26833 9.16666 9.73167 9.49666 10 9.78999C10.2683 9.49666 10.7317 9.16666 11.4375 9.16666Z" stroke="black" stroke-opacity="0.6" stroke-width="1.5" stroke-linecap="round" stroke-linejoin="round"/>
</svg>
