<svg width="20" height="20" viewBox="0 0 20 20" fill="none" xmlns="http://www.w3.org/2000/svg">
<path fill-rule="evenodd" clip-rule="evenodd" d="M11.8025 17.5L15.5058 16.6767C16.1842 16.5267 16.6667 15.925 16.6667 15.2308V4.805C16.6667 4.11083 16.1842 3.50917 15.5067 3.35917L11.8033 2.53583C10.8775 2.33 10 3.03417 10 3.9825V16.0542C10 17.0017 10.8775 17.7058 11.8025 17.5V17.5Z" stroke="black" stroke-opacity="0.6" stroke-width="1.5" stroke-linecap="round" stroke-linejoin="round"/>
<path d="M12.5 9.15V10.8167" stroke="black" stroke-opacity="0.6" stroke-width="1.5" stroke-linecap="round" stroke-linejoin="round"/>
<path d="M3.33331 13.3333V15.035C3.33331 15.9558 4.07915 16.7017 4.99998 16.7017H7.49998" stroke="black" stroke-opacity="0.6" stroke-width="1.5" stroke-linecap="round" stroke-linejoin="round"/>
<path d="M3.33331 6.66667V5C3.33331 4.07917 4.07915 3.33334 4.99998 3.33334H7.49998" stroke="black" stroke-opacity="0.6" stroke-width="1.5" stroke-linecap="round" stroke-linejoin="round"/>
<path d="M3.33331 10H7.49998" stroke="black" stroke-opacity="0.6" stroke-width="1.5" stroke-linecap="round" stroke-linejoin="round"/>
<path d="M5.83331 11.6667L7.49998 10L5.83331 8.33334" stroke="black" stroke-opacity="0.6" stroke-width="1.5" stroke-linecap="round" stroke-linejoin="round"/>
</svg>
