<svg width="70" height="70" viewBox="0 0 70 70" fill="none" xmlns="http://www.w3.org/2000/svg">
<path d="M50.7744 25.9022L38.9147 14.2151C43.4058 10.06 45.1434 7.63075 49.7885 3.97455C52.7462 3.48727 57.1828 4.05189 59.29 6.87499C61.1749 8.96283 61.6194 11.771 61.1264 15.182C57.2891 19.6492 54.6667 22.8467 50.7744 25.9022Z" fill="#EC6C6C"/>
<path fill-rule="evenodd" clip-rule="evenodd" d="M58.743 6.28937C55.5596 3.20287 50.3958 3.20293 47.2125 6.28955L6.51073 45.7647C6.51072 45.7648 6.51074 45.7647 6.51073 45.7647C5.53021 46.7159 4.83548 47.9067 4.49966 49.2093L1.17359 62.1102L14.4875 58.8808C15.8351 58.5539 17.0648 57.8783 18.0454 56.9271L58.743 17.452C61.9206 14.3679 61.9205 9.37351 58.743 6.28937ZM59.4336 5.59381C63.0047 9.05991 63.0049 14.6813 59.4338 18.1474L18.7359 57.6227C17.6278 58.6975 16.2404 59.4591 14.7224 59.8273L0.610442 63.2503C0.442256 63.2911 0.26475 63.2417 0.142844 63.1201C0.0209376 62.9985 -0.0274878 62.8226 0.0152788 62.6567L3.54429 48.9686C3.92503 47.4917 4.7121 46.144 5.82019 45.0692L46.522 5.59386C50.0889 2.13541 55.8668 2.13537 59.4336 5.59381Z" fill="#B3B3B3"/>
<path fill-rule="evenodd" clip-rule="evenodd" d="M69.8581 58.6987C70.0492 58.8904 70.047 59.1989 69.8531 59.3878L65.6587 63.4751C60.8344 68.1749 53.017 68.175 48.1927 63.4753C43.7464 59.159 36.5523 59.1591 32.1062 63.4758C31.912 63.6643 31.5999 63.6616 31.4091 63.4696C31.2183 63.2776 31.2211 62.9691 31.4154 62.7805C36.2452 58.0913 44.0542 58.0913 48.884 62.7805C53.3245 67.1063 60.5261 67.1069 64.9666 62.7811L69.161 58.6938C69.3549 58.5049 69.667 58.5071 69.8581 58.6987Z" fill="#EC6C6C"/>
<path fill-rule="evenodd" clip-rule="evenodd" d="M50.4256 26.2468L38.5948 14.552L39.2919 13.8629L51.1228 25.5576L50.4256 26.2468Z" fill="#B3B3B3"/>
</svg>
