<svg width="56" height="70" viewBox="0 0 56 70" fill="none" xmlns="http://www.w3.org/2000/svg">
<path fill-rule="evenodd" clip-rule="evenodd" d="M27.8965 70C27.8965 70 0.396484 47.6389 0.396484 27.2222C0.396484 12.1878 12.7086 0 27.8965 0C43.0843 0 55.3965 12.1878 55.3965 27.2222C55.3965 47.6389 27.8965 70 27.8965 70Z" fill="#EC6C6C"/>
<path fill-rule="evenodd" clip-rule="evenodd" d="M27.897 38.8887C21.3874 38.8887 16.1113 33.6659 16.1113 27.222C16.1113 20.7781 21.3874 15.5554 27.897 15.5554C34.4067 15.5554 39.6828 20.7781 39.6828 27.222C39.6828 33.6659 34.4067 38.8887 27.897 38.8887Z" fill="white"/>
<path fill-rule="evenodd" clip-rule="evenodd" d="M27.897 16.0483C21.6654 16.0483 16.6113 21.0485 16.6113 27.222C16.6113 33.3955 21.6654 38.3957 27.897 38.3957C34.1286 38.3957 39.1828 33.3955 39.1828 27.222C39.1828 21.0485 34.1286 16.0483 27.897 16.0483ZM15.6113 27.222C15.6113 20.5078 21.1094 15.0624 27.897 15.0624C34.6847 15.0624 40.1828 20.5078 40.1828 27.222C40.1828 33.9363 34.6847 39.3817 27.897 39.3817C21.1094 39.3817 15.6113 33.9363 15.6113 27.222Z" fill="#B3B3B3"/>
</svg>
