<svg width="70" height="70" viewBox="0 0 70 70" fill="none" xmlns="http://www.w3.org/2000/svg">
<path fill-rule="evenodd" clip-rule="evenodd" d="M19.0703 0.111145C19.6226 0.111145 20.0703 0.55886 20.0703 1.11115V5.66669H50.9277V1.11115C50.9277 0.55886 51.3755 0.111145 51.9277 0.111145C52.48 0.111145 52.9277 0.55886 52.9277 1.11115V5.66669H65.9043C68.1134 5.66669 69.9043 7.45755 69.9043 9.66669V65.8889C69.9043 68.098 68.1134 69.8889 65.9043 69.8889H5.09473C2.88559 69.8889 1.09473 68.098 1.09473 65.8889V9.66669C1.09473 7.45755 2.88559 5.66669 5.09473 5.66669H18.0703V1.11115C18.0703 0.55886 18.518 0.111145 19.0703 0.111145ZM18.0703 7.66669H5.09473C3.99016 7.66669 3.09473 8.56212 3.09473 9.66669V65.8889C3.09473 66.9935 3.99016 67.8889 5.09473 67.8889H65.9043C67.0088 67.8889 67.9043 66.9935 67.9043 65.8889V9.66669C67.9043 8.56212 67.0088 7.66669 65.9043 7.66669H52.9277V12.2223C52.9277 12.7745 52.48 13.2223 51.9277 13.2223C51.3755 13.2223 50.9277 12.7745 50.9277 12.2223V7.66669H20.0703V12.2223C20.0703 12.7745 19.6226 13.2223 19.0703 13.2223C18.518 13.2223 18.0703 12.7745 18.0703 12.2223V7.66669Z" fill="#B3B3B3"/>
<path d="M30.5075 29.5213C30.5075 30.9041 29.9157 32.117 28.7321 33.1599C27.5602 34.1912 26.277 34.7068 24.8825 34.7068C23.4294 34.7068 22.1227 34.1912 20.9626 33.1599C19.8024 32.117 19.2224 30.8748 19.2224 29.4334C19.2224 27.9568 19.8083 26.6502 20.9802 25.5135C22.1638 24.365 23.4938 23.7908 24.9704 23.7908C26.4001 23.7908 27.6774 24.3885 28.8024 25.5838C29.9392 26.7791 30.5075 28.0916 30.5075 29.5213ZM27.9587 29.4334C27.9587 28.6013 27.6423 27.8748 27.0095 27.2537C26.3767 26.6326 25.6384 26.3221 24.7946 26.3221C23.9626 26.3221 23.236 26.6502 22.6149 27.3064C21.9938 27.9627 21.6833 28.7127 21.6833 29.5564C21.6833 30.365 22.0349 31.0564 22.738 31.6306C23.3942 32.158 24.1384 32.4217 24.9704 32.4217C25.7556 32.4217 26.447 32.1228 27.0446 31.5252C27.654 30.9158 27.9587 30.2185 27.9587 29.4334Z" fill="#EC6C6C"/>
<path d="M52.5681 26.6209C51.7243 27.3709 50.904 28.2322 50.1071 29.2049L47.4528 32.4568C46.0817 34.1326 44.5524 36.4529 42.8649 39.4178L40.0876 37.7303C41.0837 35.8201 42.9997 33.0076 45.8356 29.2928C43.9958 29.2928 42.5251 28.8064 41.4235 27.8338C40.2751 26.826 39.7009 25.4138 39.7009 23.5974C39.7009 21.9451 40.2165 20.574 41.2477 19.4842C42.2907 18.3826 43.6325 17.8318 45.2731 17.8318C46.4333 17.8318 47.7517 18.2127 49.2282 18.9744L48.2263 21.7869C47.3474 21.3181 46.4977 21.0838 45.6774 21.0838C44.8923 21.0838 44.2243 21.3299 43.6735 21.8221C43.1345 22.3142 42.8649 22.9412 42.8649 23.7029C42.8649 25.3904 43.8259 26.2342 45.7477 26.2342C47.0485 26.2342 48.4724 25.7361 50.0192 24.74L52.5681 26.6209Z" fill="#EC6C6C"/>
<path d="M25.571 57.772L24.959 56.284C25.383 56.14 25.771 55.972 26.123 55.78C26.483 55.588 26.795 55.376 27.059 55.144C27.323 54.912 27.527 54.66 27.671 54.388C27.815 54.108 27.887 53.808 27.887 53.488C27.887 53.152 27.811 52.784 27.659 52.384C27.507 51.984 27.323 51.576 27.107 51.16L28.679 50.404C28.823 50.652 28.947 50.92 29.051 51.208C29.163 51.488 29.255 51.74 29.327 51.964C29.399 52.188 29.447 52.34 29.471 52.42C29.583 52.804 29.735 53.06 29.927 53.188C30.127 53.316 30.447 53.38 30.887 53.38C31.191 53.38 31.407 53.46 31.535 53.62C31.671 53.772 31.739 53.964 31.739 54.196C31.739 54.444 31.655 54.652 31.487 54.82C31.319 54.98 31.079 55.06 30.767 55.06C30.439 55.06 30.151 55.012 29.903 54.916C29.655 54.82 29.455 54.68 29.303 54.496C29.159 54.312 29.067 54.096 29.027 53.848L29.471 54.1C29.423 54.524 29.283 54.924 29.051 55.3C28.827 55.684 28.535 56.036 28.175 56.356C27.815 56.676 27.411 56.956 26.963 57.196C26.515 57.436 26.051 57.628 25.571 57.772Z" fill="#EC6C6C"/>
<path d="M34.8133 57.64C34.2453 57.64 33.7213 57.516 33.2413 57.268C32.7613 57.028 32.3773 56.648 32.0893 56.128C31.8013 55.616 31.6573 54.956 31.6573 54.148C31.6573 53.436 31.7413 52.784 31.9093 52.192C32.0773 51.592 32.3053 51.076 32.5933 50.644C32.8893 50.204 33.2213 49.864 33.5893 49.624C33.9573 49.384 34.3453 49.264 34.7533 49.264C35.0573 49.264 35.3453 49.352 35.6173 49.528C35.8893 49.696 36.1133 49.944 36.2893 50.272C36.4653 50.6 36.5533 51 36.5533 51.472C36.5533 51.728 36.5013 52.016 36.3973 52.336C36.2933 52.656 36.1093 52.96 35.8453 53.248C35.5893 53.528 35.2293 53.752 34.7653 53.92L35.0533 52.972C35.3093 53.068 35.5853 53.148 35.8813 53.212C36.1773 53.268 36.4853 53.312 36.8053 53.344C37.1253 53.368 37.4373 53.38 37.7413 53.38C38.0453 53.38 38.2613 53.46 38.3893 53.62C38.5253 53.772 38.5933 53.964 38.5933 54.196C38.5933 54.444 38.5093 54.652 38.3413 54.82C38.1733 54.98 37.9333 55.06 37.6213 55.06C37.3973 55.06 37.1413 55.048 36.8533 55.024C36.5733 55 36.2973 54.968 36.0253 54.928C35.7613 54.888 35.5373 54.844 35.3533 54.796L36.6613 54.496C36.8453 54.72 36.9693 54.968 37.0333 55.24C37.1053 55.52 37.1133 55.8 37.0573 56.08C37.0093 56.36 36.8933 56.616 36.7093 56.848C36.5333 57.088 36.2853 57.28 35.9653 57.424C35.6533 57.568 35.2693 57.64 34.8133 57.64ZM30.7813 55.06L30.9013 53.38C31.0373 53.38 31.2173 53.38 31.4413 53.38C31.6733 53.38 31.8773 53.38 32.0533 53.38L32.1853 54.904C31.9533 54.952 31.7013 54.988 31.4293 55.012C31.1653 55.044 30.9493 55.06 30.7813 55.06ZM34.7653 55.984C34.9253 55.984 35.0573 55.956 35.1613 55.9C35.2653 55.852 35.3413 55.78 35.3893 55.684C35.4453 55.596 35.4733 55.496 35.4733 55.384C35.4733 55.288 35.4413 55.18 35.3773 55.06C35.3133 54.94 35.1933 54.836 35.0173 54.748C34.8413 54.652 34.5893 54.604 34.2613 54.604C34.1413 54.604 34.0093 54.612 33.8653 54.628C33.7293 54.644 33.5813 54.668 33.4213 54.7C33.2613 54.724 33.0973 54.756 32.9293 54.796L32.9893 53.356C33.2933 53.332 33.5653 53.284 33.8053 53.212C34.0453 53.132 34.2453 53.028 34.4053 52.9C34.5733 52.764 34.7013 52.6 34.7893 52.408C34.8773 52.216 34.9213 51.992 34.9213 51.736C34.9213 51.608 34.9093 51.484 34.8853 51.364C34.8613 51.236 34.8253 51.132 34.7773 51.052C34.7293 50.964 34.6693 50.92 34.5973 50.92C34.4693 50.92 34.3333 50.992 34.1893 51.136C34.0453 51.28 33.9093 51.488 33.7813 51.76C33.6533 52.024 33.5453 52.344 33.4573 52.72C33.3773 53.088 33.3373 53.5 33.3373 53.956C33.3373 54.34 33.3773 54.664 33.4573 54.928C33.5373 55.184 33.6453 55.388 33.7813 55.54C33.9173 55.7 34.0693 55.812 34.2373 55.876C34.4133 55.948 34.5893 55.984 34.7653 55.984Z" fill="#EC6C6C"/>
<path d="M37.6368 55.06L37.7568 53.38C37.9408 53.38 38.0968 53.336 38.2248 53.248C38.3608 53.152 38.5008 52.996 38.6448 52.78C38.7888 52.556 38.9568 52.256 39.1488 51.88C39.3888 51.4 39.6368 51.024 39.8928 50.752C40.1568 50.48 40.4248 50.288 40.6968 50.176C40.9768 50.056 41.2568 49.996 41.5368 49.996C41.8888 49.996 42.2168 50.072 42.5208 50.224C42.8248 50.376 43.0888 50.584 43.3128 50.848C43.5368 51.104 43.7088 51.4 43.8288 51.736C43.9568 52.064 44.0208 52.404 44.0208 52.756C44.0208 53.18 43.9288 53.564 43.7448 53.908C43.5688 54.244 43.3208 54.512 43.0008 54.712C42.6888 54.904 42.3288 55 41.9208 55C41.5768 55 41.1768 54.94 40.7208 54.82C40.2648 54.7 39.7848 54.448 39.2808 54.064L39.8928 52.612C40.2528 52.86 40.5888 53.04 40.9008 53.152C41.2208 53.264 41.4848 53.32 41.6928 53.32C41.8528 53.32 41.9848 53.304 42.0888 53.272C42.1928 53.24 42.2688 53.188 42.3168 53.116C42.3648 53.044 42.3888 52.948 42.3888 52.828C42.3888 52.66 42.3488 52.488 42.2688 52.312C42.1888 52.136 42.0808 51.988 41.9448 51.868C41.8168 51.74 41.6648 51.676 41.4888 51.676C41.3208 51.676 41.1768 51.74 41.0568 51.868C40.9448 51.988 40.8328 52.164 40.7208 52.396C40.6168 52.62 40.4888 52.884 40.3368 53.188C40.1528 53.556 39.9728 53.864 39.7968 54.112C39.6208 54.352 39.4328 54.544 39.2328 54.688C39.0408 54.824 38.8128 54.92 38.5488 54.976C38.2928 55.032 37.9888 55.06 37.6368 55.06Z" fill="#EC6C6C"/>
</svg>
