<svg width="70" height="70" viewBox="0 0 70 70" fill="none" xmlns="http://www.w3.org/2000/svg">
<path fill-rule="evenodd" clip-rule="evenodd" d="M34.8965 70C34.8965 70 7.39648 47.6389 7.39648 27.2222C7.39648 12.1878 19.7086 0 34.8965 0C50.0843 0 62.3965 12.1878 62.3965 27.2222C62.3965 47.6389 34.8965 70 34.8965 70Z" fill="#EC6C6C"/>
<path fill-rule="evenodd" clip-rule="evenodd" d="M34.897 38.8887C28.3874 38.8887 23.1113 33.6659 23.1113 27.222C23.1113 20.7781 28.3874 15.5554 34.897 15.5554C41.4067 15.5554 46.6828 20.7781 46.6828 27.222C46.6828 33.6659 41.4067 38.8887 34.897 38.8887Z" fill="white"/>
<path fill-rule="evenodd" clip-rule="evenodd" d="M34.897 16.0483C28.6654 16.0483 23.6113 21.0485 23.6113 27.222C23.6113 33.3955 28.6654 38.3957 34.897 38.3957C41.1286 38.3957 46.1828 33.3955 46.1828 27.222C46.1828 21.0485 41.1286 16.0483 34.897 16.0483ZM22.6113 27.222C22.6113 20.5078 28.1094 15.0624 34.897 15.0624C41.6847 15.0624 47.1828 20.5078 47.1828 27.222C47.1828 33.9363 41.6847 39.3817 34.897 39.3817C28.1094 39.3817 22.6113 33.9363 22.6113 27.222Z" fill="#B3B3B3"/>
</svg>
