<svg width="70" height="70" viewBox="0 0 70 70" fill="none" xmlns="http://www.w3.org/2000/svg">
<path d="M52.9263 4.31079C56.3595 0.853187 61.9288 0.850202 65.3657 4.30412C68.8026 7.75804 68.8056 13.3609 65.3723 16.8185L54.8095 27.4564L42.3635 14.9486L52.9263 4.31079Z" fill="#EC6C6C"/>
<path fill-rule="evenodd" clip-rule="evenodd" d="M40.7825 13.8296C40.7648 13.8454 40.7474 13.8618 40.7304 13.8789C40.7134 13.896 40.6971 13.9135 40.6814 13.9313L6.57754 48.2376C5.28333 49.5397 4.36508 51.1712 3.92107 52.9576L0.0335501 68.597C-0.0620922 68.9818 0.0499606 69.3888 0.32873 69.6693C0.607499 69.9497 1.0121 70.0625 1.39456 69.9662L16.9402 66.0553C18.7158 65.6086 20.3375 64.6848 21.6318 63.3828L55.7705 29.0381C55.7753 29.0335 55.78 29.0288 55.7847 29.024C55.7894 29.0193 55.7941 29.0145 55.7987 29.0097L66.4641 18.28C70.6192 14.0971 70.6194 7.31793 66.4643 3.13506C62.3081 -1.04475 55.5706 -1.04516 51.4144 3.13466L40.7825 13.8296ZM53.0012 4.73165C56.2809 1.43341 61.5969 1.43328 64.8767 4.73124C68.1555 8.03243 68.1558 13.3825 64.8767 16.6835L54.991 26.6289L43.1127 14.6789L53.0012 4.73165ZM53.4039 28.2256L20.0447 61.7861C19.038 62.7988 17.7768 63.5172 16.3957 63.8646L2.66488 67.3191L6.09856 53.5054C6.4439 52.116 7.15802 50.8471 8.16459 49.8344L41.5255 16.2755L53.4039 28.2256Z" fill="#B3B3B3"/>
<path fill-rule="evenodd" clip-rule="evenodd" d="M69.6713 55.371C70.1096 55.8119 70.1096 56.5267 69.6713 56.9677L66.1415 60.5188C61.8052 64.88 54.776 64.8805 50.4394 60.5198C46.9742 57.0469 41.3698 57.0471 37.9047 60.5202C37.4657 60.9603 36.7551 60.959 36.3176 60.5173C35.8801 60.0756 35.8814 59.3607 36.3205 58.9206C40.6616 54.5694 47.6829 54.5694 52.024 58.9206L51.2317 59.7206L52.0253 58.922C55.4854 62.402 61.0943 62.402 64.5544 58.9221C64.5544 58.922 64.5543 58.9221 64.5544 58.9221L68.0842 55.371C68.5224 54.9301 69.233 54.9301 69.6713 55.371Z" fill="#EC6C6C"/>
</svg>
