<svg width="70" height="70" viewBox="0 0 70 70" fill="none" xmlns="http://www.w3.org/2000/svg">
<path fill-rule="evenodd" clip-rule="evenodd" d="M11.666 11.6667V6.48278C11.666 2.90111 14.5671 0 18.1488 0H63.5208C67.0986 0 69.9997 2.90111 69.9997 6.48278V51.8545C69.9997 55.4323 67.0986 58.3334 63.5169 58.3334H58.333" fill="#EC6C6C"/>
<path fill-rule="evenodd" clip-rule="evenodd" d="M52.8509 68.9999H7.48282C3.90113 68.9999 1 66.0988 1 62.5172V17.1493C1 13.5677 3.90113 10.6666 7.48282 10.6666H52.8548C56.4326 10.6666 59.3337 13.5677 59.3337 17.1493V62.521C59.3337 66.0988 56.4326 68.9999 52.8509 68.9999Z" fill="white"/>
<path fill-rule="evenodd" clip-rule="evenodd" d="M7.48282 10.9166C4.0392 10.9166 1.25 13.7058 1.25 17.1493V62.5172C1.25 65.9608 4.0392 68.7499 7.48282 68.7499H52.8509C56.2946 68.7499 59.0837 65.9607 59.0837 62.521V17.1493C59.0837 13.7057 56.2944 10.9166 52.8548 10.9166H7.48282ZM0.75 17.1493C0.75 13.4296 3.76306 10.4166 7.48282 10.4166H52.8548C56.5707 10.4166 59.5837 13.4297 59.5837 17.1493V62.521C59.5837 66.237 56.5705 69.2499 52.8509 69.2499H7.48282C3.76306 69.2499 0.75 66.2369 0.75 62.5172V17.1493Z" fill="#EC6C6C"/>
<path fill-rule="evenodd" clip-rule="evenodd" d="M14.4668 53.1025C16.3152 51.393 18.7288 50.438 21.2527 50.438H39.0795C41.6022 50.438 44.0207 51.3883 45.8667 53.1037C46.9593 54.1164 47.8124 55.3602 48.363 56.7429C48.5163 57.1277 48.3285 57.5639 47.9437 57.7171C47.5589 57.8704 47.1227 57.6827 46.9695 57.2979C46.5013 56.1223 45.7758 55.0645 44.8464 54.2032C43.278 52.7458 41.2235 51.938 39.0795 51.938H21.2527C19.1101 51.938 17.0594 52.7481 15.4856 54.2034C14.5564 55.0647 13.8309 56.1224 13.3628 57.2979C13.2095 57.6827 12.7733 57.8704 12.3885 57.7171C12.0037 57.5639 11.816 57.1277 11.9692 56.7429C12.52 55.3599 13.3739 54.1154 14.4668 53.1025Z" fill="#B3B3B3"/>
<path fill-rule="evenodd" clip-rule="evenodd" d="M36.6882 25.2213C33.0836 21.6206 27.2441 21.6176 23.6443 25.2212C20.0434 28.8257 20.0403 34.6652 23.6439 38.2652C27.2482 41.8657 33.0878 41.8655 36.688 38.2655C40.2886 34.6612 40.2884 28.8215 36.6882 25.2213ZM37.3929 24.5119C33.3984 20.5238 26.9273 20.5199 22.9368 24.5144C18.9465 28.5087 18.9419 34.9814 22.9372 38.9726C26.9317 42.9631 33.4043 42.9634 37.3953 38.9725C41.3858 34.9779 41.3862 28.5051 37.3953 24.5142M37.3953 24.5142C37.3945 24.5135 37.3936 24.5126 37.3929 24.5119L37.3953 24.5142Z" fill="#B3B3B3"/>
</svg>
