<svg width="70" height="70" viewBox="0 0 70 70" fill="none" xmlns="http://www.w3.org/2000/svg">
<path fill-rule="evenodd" clip-rule="evenodd" d="M12.9078 12.4185V7.34486C12.9078 3.83939 15.7472 1 19.2526 1H63.659C67.1606 1 70 3.83939 70 7.34486V51.7513C70 55.253 67.1606 58.0924 63.6552 58.0924H58.5816" fill="#EC6C6C"/>
<path fill-rule="evenodd" clip-rule="evenodd" d="M52.2367 69.5106H7.83421C4.32875 69.5106 1.48936 66.6712 1.48936 63.1658V18.7631C1.48936 15.2577 4.32875 12.4183 7.83421 12.4183H52.2405C55.7422 12.4183 58.5816 15.2577 58.5816 18.7631V63.1696C58.5816 66.6712 55.7422 69.5106 52.2367 69.5106Z" fill="white"/>
<path fill-rule="evenodd" clip-rule="evenodd" d="M7.83421 12.9076C4.59901 12.9076 1.97872 15.5279 1.97872 18.7631V63.1658C1.97872 66.401 4.59901 69.0213 7.83421 69.0213H52.2367C55.4721 69.0213 58.0922 66.4008 58.0922 63.1696V18.7631C58.0922 15.5278 55.4717 12.9076 52.2405 12.9076H7.83421ZM1 18.7631C1 14.9874 4.05848 11.9289 7.83421 11.9289H52.2405C56.0126 11.9289 59.0709 14.9876 59.0709 18.7631V63.1696C59.0709 66.9417 56.0122 70 52.2367 70H7.83421C4.05848 70 1 66.9415 1 63.1658V18.7631Z" fill="#EC6C6C"/>
<path fill-rule="evenodd" clip-rule="evenodd" d="M36.248 28.7941C32.8155 25.3651 27.2551 25.3625 23.8276 28.7936C20.3986 32.2261 20.3959 37.7864 23.827 41.214C27.2591 44.6426 32.8195 44.6423 36.2475 41.2146C39.676 37.7825 39.6757 32.2221 36.248 28.7941ZM22.7889 27.756C26.7909 23.7499 33.2808 23.7548 37.2856 27.7555C41.2872 31.7571 41.2871 38.2471 37.2861 42.2521C33.2845 46.2538 26.7945 46.2536 22.7895 42.2527C18.7834 38.2507 18.7883 31.7607 22.7889 27.756Z" fill="#B3B3B3"/>
<path fill-rule="evenodd" clip-rule="evenodd" d="M14.5041 55.7296C16.3579 54.0148 18.7794 53.0563 21.3118 53.0563H38.7591C41.2899 53.0563 43.7165 54.01 45.5686 55.7312C46.6644 56.7472 47.5201 57.995 48.0724 59.3822C48.2724 59.8844 48.0274 60.4536 47.5252 60.6535C47.023 60.8535 46.4538 60.6085 46.2538 60.1063C45.8091 58.9894 45.1198 57.9843 44.2369 57.1659L44.9022 56.4481L44.236 57.165C42.7462 55.7805 40.7957 55.0137 38.7591 55.0137H21.3118C19.277 55.0137 17.3291 55.7831 15.8336 57.1662C14.9509 57.9846 14.2617 58.9896 13.8171 60.1063C13.6171 60.6085 13.0479 60.8535 12.5457 60.6535C12.0436 60.4536 11.7985 59.8844 11.9985 59.3822C12.551 57.9946 13.407 56.7465 14.5033 55.7303L15.1686 56.4481L14.5041 55.7296Z" fill="#B3B3B3"/>
</svg>
