<svg width="16" height="13" viewBox="0 0 16 13" fill="none" xmlns="http://www.w3.org/2000/svg">
<path d="M8 12.4834L7.33333 11.9567C5.30556 10.2013 3.65972 8.68296 2.39583 7.40185C1.13194 6.12127 0.5 4.8243 0.5 3.51095C0.5 2.52268 0.861111 1.69046 1.58333 1.01427C2.30556 0.338091 3.19444 0 4.25 0C4.86111 0 5.49667 0.143038 6.15667 0.429115C6.81611 0.715193 7.43056 1.26134 8 2.06756C8.56944 1.26134 9.18417 0.715193 9.84417 0.429115C10.5036 0.143038 11.1389 0 11.75 0C12.8056 0 13.6944 0.338091 14.4167 1.01427C15.1389 1.69046 15.5 2.52268 15.5 3.51095C15.5 4.8243 14.8681 6.12127 13.6042 7.40185C12.3403 8.68296 10.6944 10.2013 8.66667 11.9567L8 12.4834Z" fill="#EC6C6C"/>
</svg>
