<svg width="143" height="31" viewBox="0 0 143 31" fill="none" xmlns="http://www.w3.org/2000/svg">
<path d="M17.7189 17.9401H18.2034C18.6802 17.9401 18.9186 18.1631 18.9186 18.6092C18.9186 19.086 18.6802 19.3244 18.2034 19.3244C17.4388 19.3244 16.7253 19.2647 16.0577 18.8399C15.5656 18.5169 15.181 18.1093 14.9042 17.6171C14.5043 18.1401 14.0044 18.5554 13.4045 18.863C12.82 19.1706 12.174 19.3244 11.4665 19.3244H4.31436C3.71451 19.3244 3.1531 19.2167 2.63015 19.0014C2.10719 18.7707 1.64576 18.4631 1.24586 18.0786C0.861335 17.6786 0.553715 17.2172 0.323001 16.6943C0.107667 16.1713 0 15.6099 0 15.01V12.6798H1.33815V14.987C1.33815 15.4023 1.41505 15.7868 1.56886 16.1405C1.72267 16.4943 1.93031 16.8096 2.19179 17.0865C2.46865 17.348 2.78396 17.5556 3.13772 17.7094C3.50686 17.8632 3.89908 17.9401 4.31436 17.9401L11.4665 17.9171C11.8818 17.9171 12.2663 17.8478 12.6201 17.7094C12.9892 17.5556 13.3045 17.348 13.566 17.0865C13.8429 16.825 14.0582 16.5174 14.212 16.1636C14.3658 15.8099 14.4427 15.4253 14.4427 15.01V12.6798H15.7809V16.1175C15.7809 16.625 15.9731 17.0557 16.3577 17.4095C16.7576 17.7632 17.2113 17.9401 17.7189 17.9401Z" fill="black"/>
<path d="M39.071 22.0007H40.8518V23.4311H39.071V22.0007Z" fill="black"/>
<path d="M46.0502 22.0007H50.2103V23.4311H46.0502V22.0007Z" fill="black"/>
<path d="M69.634 13.6027C69.9878 13.9718 70.2569 14.3794 70.4415 14.8255C70.6261 15.2715 70.7184 15.733 70.7184 16.2098C70.7184 16.6712 70.6261 17.1249 70.4415 17.571C70.2569 18.017 69.9878 18.4169 69.634 18.7707C69.2649 19.1398 68.8573 19.409 68.4112 19.5782C67.9652 19.7628 67.5114 19.8551 67.05 19.8551C66.5732 19.8551 66.1118 19.7628 65.6657 19.5782C65.2197 19.409 64.8198 19.1398 64.466 18.7707C64.0969 18.4169 63.82 18.017 63.6354 17.571C63.4662 17.1095 63.3816 16.6481 63.3816 16.1867C63.3816 15.7253 63.4739 15.2715 63.6585 14.8255C63.8431 14.364 64.1122 13.9564 64.466 13.6027C64.5583 13.5104 64.666 13.4027 64.789 13.2797C64.9274 13.1566 65.0659 13.0259 65.2043 12.8875C65.3581 12.7337 65.5042 12.5799 65.6426 12.426C65.7965 12.2722 65.9503 12.1184 66.1041 11.9646L65.435 11.2955L66.3809 10.3727L69.634 13.6027ZM68.6881 14.5486L67.05 12.9105C66.8193 13.1413 66.5963 13.3643 66.3809 13.5796C66.2887 13.6565 66.1964 13.7411 66.1041 13.8334C66.0118 13.9257 65.9195 14.018 65.8272 14.1103C65.7503 14.2025 65.6734 14.2871 65.5965 14.364C65.5196 14.4409 65.4504 14.5025 65.3889 14.5486C65.1735 14.7793 65.012 15.0408 64.9044 15.333C64.7967 15.6099 64.7429 15.8945 64.7429 16.1867C64.7429 16.4789 64.8044 16.7712 64.9274 17.0634C65.0505 17.3403 65.2197 17.5864 65.435 17.8017C65.6657 18.0324 65.9272 18.2093 66.2194 18.3323C66.5117 18.44 66.8039 18.4938 67.0962 18.4938C67.3884 18.4938 67.6729 18.44 67.9498 18.3323C68.2267 18.2247 68.4728 18.0632 68.6881 17.8478C68.9188 17.6171 69.088 17.3633 69.1957 17.0865C69.3033 16.7942 69.3572 16.502 69.3572 16.2098C69.3572 15.9021 69.3033 15.6099 69.1957 15.333C69.088 15.0408 68.9188 14.7793 68.6881 14.5486Z" fill="black"/>
<path d="M78.6724 13.3489C79.0876 13.6258 79.4183 14.0026 79.6644 14.4794C79.9259 14.9562 80.0566 15.4869 80.0566 16.0713C80.0566 16.502 79.972 16.9173 79.8029 17.3172C79.6337 17.7017 79.4029 18.0478 79.1107 18.3554C78.8185 18.6476 78.4724 18.8861 78.0725 19.0706C77.6726 19.2398 77.2419 19.3244 76.7805 19.3244H72.2123V17.9401H76.7805C77.3188 17.9401 77.7726 17.7556 78.1417 17.3864C78.5262 17.0173 78.7185 16.5789 78.7185 16.0713C78.7185 15.7022 78.6339 15.3715 78.4647 15.0793C78.3109 14.787 78.1033 14.564 77.8418 14.4102L74.1273 11.8493L74.8425 10.7418C75.55 11.2186 76.1806 11.6416 76.7344 12.0108C77.2265 12.3338 77.6649 12.6337 78.0494 12.9105C78.4493 13.172 78.657 13.3181 78.6724 13.3489Z" fill="black"/>
<path d="M5.95166 10.0057H10.1117V11.4361H5.95166V10.0057Z" fill="black"/>
<rect x="127.796" y="0.485786" width="14.8851" height="25.3047" rx="0.572505" transform="rotate(45 127.796 0.485786)" fill="white" stroke="black" stroke-width="0.687006"/>
<rect x="134.897" y="4.44244" width="14.8851" height="25.3047" rx="0.572505" transform="rotate(60 134.897 4.44244)" fill="white" stroke="black" stroke-width="0.687006"/>
<mask id="mask0_12_633" style="mask-type:alpha" maskUnits="userSpaceOnUse" x="120" y="10" width="15" height="15">
<rect x="120.469" y="15.5894" width="10.4451" height="10.4451" transform="rotate(-30 120.469 15.5894)" fill="#D9D9D9"/>
</mask>
<g mask="url(#mask0_12_633)">
<path d="M128.719 20.5001L127.893 20.3108C126.87 20.0895 125.926 19.8366 125.062 19.5519C124.199 19.2675 123.573 18.7893 123.185 18.1172C122.876 17.5832 122.799 17.0313 122.951 16.4613C123.104 15.8918 123.447 15.4529 123.981 15.1446C124.283 14.9705 124.623 14.8679 125.003 14.8368C125.383 14.806 125.78 14.8806 126.194 15.0605C126.245 14.6122 126.379 14.2312 126.596 13.9174C126.813 13.604 127.072 13.3602 127.373 13.1861C127.907 12.8779 128.459 12.8 129.028 12.9526C129.598 13.1054 130.038 13.4487 130.346 13.9826C130.737 14.6611 130.838 15.4512 130.646 16.3529C130.455 17.255 130.202 18.1948 129.887 19.1724L129.637 19.9576C129.578 20.1594 129.46 20.311 129.284 20.4126C129.108 20.5141 128.92 20.5433 128.719 20.5001ZM126.253 15.7931C125.87 15.595 125.524 15.4891 125.215 15.4751C124.905 15.4612 124.603 15.5395 124.307 15.71C123.931 15.9276 123.689 16.2345 123.583 16.6309C123.477 17.0272 123.532 17.4138 123.75 17.7908C123.924 18.0923 124.204 18.3517 124.589 18.5689C124.974 18.7864 125.408 18.9732 125.892 19.1294C126.376 19.2856 126.879 19.4203 127.401 19.5336C127.923 19.6469 128.409 19.7534 128.86 19.8531C128.89 19.861 128.921 19.8559 128.952 19.8378C128.984 19.8197 129.003 19.7957 129.011 19.766C129.15 19.3254 129.302 18.8508 129.464 18.3419C129.627 17.8335 129.762 17.3308 129.869 16.8337C129.975 16.3366 130.031 15.8668 130.035 15.4245C130.039 14.9824 129.955 14.6106 129.78 14.309C129.563 13.9321 129.256 13.6906 128.86 13.5844C128.463 13.4782 128.077 13.5339 127.7 13.7515C127.404 13.922 127.185 14.1447 127.043 14.4198C126.9 14.6948 126.819 15.0474 126.799 15.4775C126.793 15.5396 126.772 15.5978 126.736 15.6519C126.701 15.7061 126.658 15.7476 126.607 15.7766C126.557 15.8057 126.5 15.8221 126.435 15.826C126.37 15.8299 126.309 15.8189 126.253 15.7931Z" fill="#1C1B1F"/>
</g>
<path d="M128.719 20.5001L127.893 20.3108C126.87 20.0895 125.926 19.8365 125.062 19.5518C124.199 19.2675 123.573 18.7893 123.185 18.1171C122.876 17.5832 122.799 17.0312 122.951 16.4613C123.104 15.8918 123.447 15.4528 123.981 15.1446C124.283 14.9705 124.623 14.8679 125.003 14.8367C125.383 14.806 125.78 14.8806 126.194 15.0605C126.245 14.6122 126.379 14.2312 126.596 13.9174C126.813 13.6039 127.072 13.3602 127.373 13.1861C127.907 12.8778 128.459 12.8 129.028 12.9526C129.598 13.1053 130.038 13.4487 130.346 13.9826C130.737 14.661 130.838 15.4511 130.646 16.3529C130.455 17.2549 130.202 18.1948 129.887 19.1723L129.637 19.9575C129.578 20.1593 129.46 20.311 129.284 20.4126C129.108 20.5141 128.92 20.5433 128.719 20.5001Z" fill="#EC6C6C"/>
<path d="M87.1316 17.9401C87.6084 17.9401 87.8468 18.1631 87.8468 18.6092C87.8468 19.086 87.6084 19.3244 87.1316 19.3244H86.0011C85.5396 19.3244 85.109 19.2398 84.7091 19.0706C84.3092 18.8861 83.9554 18.6476 83.6478 18.3554C83.3555 18.0478 83.1171 17.694 82.9326 17.2941C82.7634 16.8942 82.6788 16.4635 82.6788 16.0021V6.6351H84.0169V16.0252C84.0169 16.5635 84.2092 17.0173 84.5937 17.3864C84.9782 17.7556 85.4473 17.9401 86.0011 17.9401H87.1316Z" fill="black"/>
<path d="M87.1435 19.3244C86.6667 19.3244 86.4282 19.086 86.4282 18.6092C86.4282 18.1631 86.6667 17.9401 87.1435 17.9401H89.5429C90.0197 17.9401 90.2581 18.1631 90.2581 18.6092C90.2581 19.086 90.0197 19.3244 89.5429 19.3244H87.1435Z" fill="black"/>
<path d="M89.5475 19.3244C89.0707 19.3244 88.8323 19.086 88.8323 18.6092C88.8323 18.1631 89.0707 17.9401 89.5475 17.9401H91.9469C92.4237 17.9401 92.6621 18.1631 92.6621 18.6092C92.6621 19.086 92.4237 19.3244 91.9469 19.3244H89.5475Z" fill="black"/>
<path d="M91.9515 19.3244C91.4747 19.3244 91.2363 19.086 91.2363 18.6092C91.2363 18.1631 91.4747 17.9401 91.9515 17.9401H94.351C94.8278 17.9401 95.0662 18.1631 95.0662 18.6092C95.0662 19.086 94.8278 19.3244 94.351 19.3244H91.9515Z" fill="black"/>
<path d="M94.3555 19.3244C93.8787 19.3244 93.6403 19.086 93.6403 18.6092C93.6403 18.1631 93.8787 17.9401 94.3555 17.9401H96.755C97.2318 17.9401 97.4702 18.1631 97.4702 18.6092C97.4702 19.086 97.2318 19.3244 96.755 19.3244H94.3555Z" fill="black"/>
<path d="M96.7596 19.3244C96.2674 19.3244 96.0213 19.086 96.0213 18.6092C96.0213 18.1631 96.2674 17.9401 96.7596 17.9401H98.2823C98.5438 17.9401 98.7899 17.8863 99.0206 17.7786C99.2513 17.671 99.4512 17.5325 99.6204 17.3633C99.805 17.1788 99.9511 16.9634 100.059 16.7173C100.166 16.4712 100.22 16.2098 100.22 15.9329V15.5018H101.605V16.0021C101.605 16.4635 101.512 16.8942 101.328 17.2941C101.159 17.694 100.92 18.0478 100.613 18.3554C100.32 18.6476 99.9742 18.8861 99.5743 19.0706C99.1744 19.2398 98.7437 19.3244 98.2823 19.3244H96.7596Z" fill="black"/>
<path d="M18.8964 17.9401C19.3732 17.9401 19.6116 18.1631 19.6116 18.6092C19.6116 19.086 19.3732 19.3244 18.8964 19.3244H17.7659C17.3045 19.3244 16.8738 19.2398 16.4739 19.0706C16.074 18.8861 15.7202 18.6476 15.4126 18.3554C15.1204 18.0478 14.882 17.694 14.6974 17.2941C14.5282 16.8942 14.4436 16.4635 14.4436 16.0021V14.5659H15.7818V16.0252C15.7818 16.5635 15.974 17.0173 16.3585 17.3864C16.7431 17.7555 17.2122 17.9401 17.7659 17.9401H18.8964Z" fill="black"/>
<path d="M18.9083 19.3244C18.4315 19.3244 18.1931 19.086 18.1931 18.6092C18.1931 18.1631 18.4315 17.9401 18.9083 17.9401H21.3414C21.8182 17.9401 22.0566 18.1631 22.0566 18.6092C22.0566 19.086 21.8182 19.3244 21.3414 19.3244H18.9083Z" fill="black"/>
<path d="M21.346 19.3244C20.8692 19.3244 20.6308 19.086 20.6308 18.6092C20.6308 18.1631 20.8692 17.9401 21.346 17.9401H23.7454C24.2222 17.9401 24.4606 18.1631 24.4606 18.6092C24.4606 19.086 24.2222 19.3244 23.7454 19.3244H21.346Z" fill="black"/>
<path d="M23.75 19.3244C23.2732 19.3244 23.0348 19.086 23.0348 18.6092C23.0348 18.1631 23.2732 17.9401 23.75 17.9401H26.1495C26.6263 17.9401 26.8647 18.1631 26.8647 18.6092C26.8647 19.086 26.6263 19.3244 26.1495 19.3244H23.75Z" fill="black"/>
<path d="M26.154 19.3244C25.6772 19.3244 25.4388 19.086 25.4388 18.6092C25.4388 18.1631 25.6772 17.9401 26.154 17.9401H28.5535C29.0303 17.9401 29.2687 18.1631 29.2687 18.6092C29.2687 19.086 29.0303 19.3244 28.5535 19.3244H26.154Z" fill="black"/>
<path d="M28.5581 19.3244C28.0659 19.3244 27.8198 19.086 27.8198 18.6092C27.8198 18.1631 28.0659 17.9401 28.5581 17.9401H30.0808C30.3423 17.9401 30.5884 17.8863 30.8191 17.7786C31.0498 17.671 31.2497 17.5325 31.4189 17.3633C31.6035 17.1788 31.7496 16.9634 31.8573 16.7173C31.965 16.4712 32.0188 16.2098 32.0188 15.9329V15.5018H33.4031V16.0021C33.4031 16.4635 33.3108 16.8942 33.1262 17.2941C32.957 17.694 32.7186 18.0478 32.411 18.3554C32.1188 18.6476 31.7727 18.8861 31.3728 19.0706C30.9729 19.2398 30.5422 19.3244 30.0808 19.3244H28.5581Z" fill="black"/>
<path d="M40.1911 17.9401C40.6679 17.9401 40.9063 18.1631 40.9063 18.6092C40.9063 19.086 40.6679 19.3244 40.1911 19.3244H39.0606C38.5991 19.3244 38.1685 19.2398 37.7686 19.0706C37.3687 18.8861 37.0149 18.6476 36.7073 18.3554C36.415 18.0478 36.1766 17.694 35.9921 17.2941C35.8229 16.8942 35.7383 16.4635 35.7383 16.0021V6.6351H37.0764V16.0252C37.0764 16.5635 37.2687 17.0173 37.6532 17.3864C38.0377 17.7556 38.5069 17.9401 39.0606 17.9401H40.1911Z" fill="black"/>
<path d="M46.7783 17.9401H47.2167C47.6935 17.9401 47.9319 18.1631 47.9319 18.6092C47.9319 19.086 47.6935 19.3244 47.2167 19.3244C46.5707 19.3244 45.9939 19.2475 45.4863 19.0937C44.9941 18.9399 44.5404 18.5938 44.1251 18.0555C43.8175 18.4554 43.4407 18.7707 42.9946 19.0014C42.5486 19.2167 42.0564 19.3244 41.518 19.3244H40.203C39.7262 19.3244 39.4878 19.086 39.4878 18.6092C39.4878 18.1631 39.7262 17.9401 40.203 17.9401H41.518C41.7795 17.9401 42.0256 17.8863 42.2563 17.7786C42.5024 17.671 42.7101 17.5325 42.8793 17.3633C43.0638 17.1788 43.2023 16.9634 43.2945 16.7173C43.4022 16.4712 43.456 16.2098 43.456 15.9329V14.1369H44.8403V16.0021C44.8403 16.5251 45.0249 16.9788 45.3941 17.3633C45.7632 17.7479 46.2246 17.9401 46.7783 17.9401Z" fill="black"/>
<path d="M47.2167 19.3244C46.7245 19.3244 46.4785 19.086 46.4785 18.6092C46.4785 18.1631 46.7245 17.9401 47.2167 17.9401H49.6624C49.9238 17.9401 50.1699 17.8863 50.4006 17.7786C50.6314 17.671 50.8313 17.5325 51.0005 17.3633C51.1851 17.1788 51.3312 16.9634 51.4389 16.7173C51.5465 16.4712 51.6004 16.2098 51.6004 15.9329V14.1139H52.9847V16.0021C52.9847 16.4635 52.8924 16.8942 52.7078 17.2941C52.5386 17.694 52.3002 18.0478 51.9926 18.3554C51.7003 18.6476 51.3543 18.8861 50.9544 19.0706C50.5545 19.2398 50.1238 19.3244 49.6624 19.3244H47.2167Z" fill="black"/>
<path d="M58.4501 12.4722V19.7628C58.4039 20.5933 58.2501 21.2855 57.9886 21.8392C57.7425 22.4083 57.4042 22.8851 56.9735 23.2696C56.5428 23.6695 56.0353 24.0002 55.4508 24.2617C54.8663 24.5386 54.2126 24.7847 53.4897 25L53.1667 23.8695C53.6743 23.6695 54.1588 23.4619 54.6202 23.2466C55.097 23.0312 55.5123 22.7698 55.8661 22.4621C56.2352 22.1699 56.5274 21.8007 56.7428 21.3547C56.9581 20.924 57.0658 20.3934 57.0658 19.7628V12.4722H58.4501ZM58.4501 9.08068H56.6692V7.65025H58.4501V9.08068Z" fill="black"/>
</svg>
