<svg width="57" height="56" viewBox="0 0 57 56" fill="none" xmlns="http://www.w3.org/2000/svg">
<path d="M44.8333 25.6667C44.8333 16.6367 37.5299 9.33337 28.4999 9.33337C20.9866 9.33337 14.6633 14.42 12.7733 21.35C7.07992 22.6567 2.83325 27.7434 2.83325 33.8334C2.83325 40.9267 8.57325 46.6667 15.6666 46.6667C19.7733 46.6667 39.5833 46.6667 43.6666 46.6667C49.4766 46.6434 54.1666 41.93 54.1666 36.12C54.1666 30.6834 50.0833 26.2734 44.8333 25.6667ZM30.8333 30.3334V35C30.8333 36.2834 29.7833 37.3334 28.4999 37.3334C27.2166 37.3334 26.1666 36.2834 26.1666 35V30.3334H21.9899C20.9399 30.3334 20.4266 29.0734 21.1733 28.35L27.6833 21.84C28.1499 21.3734 28.8733 21.3734 29.3399 21.84L35.8499 28.35C36.5732 29.0734 36.0599 30.3334 35.0333 30.3334H30.8333Z" fill="#8E8E8E"/>
</svg>
