<svg width="96" height="96" viewBox="0 0 96 96" fill="none" xmlns="http://www.w3.org/2000/svg">
<mask id="mask0_35_1286" style="mask-type:alpha" maskUnits="userSpaceOnUse" x="0" y="0" width="96" height="96">
<rect width="96" height="96" fill="#D9D9D9"/>
</mask>
<g mask="url(#mask0_35_1286)">
<path d="M40 39.6V56.4C40 57.7333 40.5667 58.6827 41.7 59.248C42.8333 59.816 43.9333 59.7667 45 59.1L58.1 50.7C59.1 50.1 59.6 49.2 59.6 48C59.6 46.8 59.1 45.9 58.1 45.3L45 36.9C43.9333 36.2333 42.8333 36.184 41.7 36.752C40.5667 37.3173 40 38.2667 40 39.6ZM48 84C43 84 38.3173 83.0507 33.952 81.152C29.584 79.2507 25.784 76.6827 22.552 73.448C19.3173 70.216 16.7493 66.416 14.848 62.048C12.9493 57.6827 12 53 12 48C12 43 12.9493 38.316 14.848 33.948C16.7493 29.5827 19.3173 25.7827 22.552 22.548C25.784 19.316 29.584 16.7493 33.952 14.848C38.3173 12.9493 43 12 48 12C53 12 57.684 12.9493 62.052 14.848C66.4173 16.7493 70.2173 19.316 73.452 22.548C76.684 25.7827 79.2507 29.5827 81.152 33.948C83.0507 38.316 84 43 84 48C84 53 83.0507 57.6827 81.152 62.048C79.2507 66.416 76.684 70.216 73.452 73.448C70.2173 76.6827 66.4173 79.2507 62.052 81.152C57.684 83.0507 53 84 48 84ZM48 80C56.8667 80 64.4173 76.884 70.652 70.652C76.884 64.4173 80 56.8667 80 48C80 39.1333 76.884 31.5827 70.652 25.348C64.4173 19.116 56.8667 16 48 16C39.1333 16 31.584 19.116 25.352 25.348C19.1173 31.5827 16 39.1333 16 48C16 56.8667 19.1173 64.4173 25.352 70.652C31.584 76.884 39.1333 80 48 80Z" fill="white"/>
</g>
</svg>
