<svg width="292" height="266" viewBox="0 0 292 266" fill="none" xmlns="http://www.w3.org/2000/svg">
<rect x="160.514" y="4.24264" width="130" height="221" rx="5" transform="rotate(45 160.514 4.24264)" fill="white" stroke="black" stroke-width="6"/>
<rect x="222.536" y="38.7982" width="130" height="221" rx="5" transform="rotate(60 222.536 38.7982)" fill="white" stroke="black" stroke-width="6"/>
<mask id="mask0_2_112" style="mask-type:alpha" maskUnits="userSpaceOnUse" x="96" y="90" width="126" height="126">
<rect x="96.5234" y="136.151" width="91.223" height="91.223" transform="rotate(-30 96.5234 136.151)" fill="#D9D9D9"/>
</mask>
<g mask="url(#mask0_2_112)">
<path d="M168.576 179.039L161.367 177.385C152.424 175.453 144.182 173.243 136.64 170.757C129.097 168.274 123.631 164.097 120.242 158.227C117.549 153.564 116.87 148.743 118.204 143.766C119.537 138.792 122.535 134.958 127.198 132.266C129.831 130.746 132.808 129.85 136.127 129.578C139.445 129.309 142.911 129.961 146.524 131.532C146.97 127.617 148.14 124.289 150.034 121.548C151.927 118.811 154.19 116.682 156.823 115.162C161.487 112.469 166.305 111.79 171.28 113.122C176.257 114.456 180.092 117.455 182.784 122.118C186.205 128.043 187.08 134.943 185.41 142.819C183.74 150.697 181.53 158.905 178.779 167.443L176.593 174.3C176.075 176.063 175.047 177.387 173.511 178.274C171.975 179.161 170.33 179.416 168.576 179.039ZM147.036 137.929C143.697 136.2 140.675 135.274 137.972 135.153C135.268 135.031 132.627 135.715 130.049 137.204C126.757 139.104 124.647 141.785 123.72 145.247C122.792 148.708 123.279 152.085 125.179 155.376C126.7 158.01 129.141 160.275 132.504 162.172C135.869 164.072 139.664 165.704 143.889 167.068C148.115 168.432 152.506 169.608 157.062 170.597C161.621 171.587 165.871 172.517 169.812 173.388C170.072 173.457 170.339 173.413 170.613 173.254C170.887 173.096 171.059 172.887 171.129 172.627C172.345 168.78 173.665 164.634 175.087 160.19C176.509 155.75 177.685 151.359 178.617 147.018C179.548 142.676 180.033 138.574 180.07 134.71C180.108 130.849 179.367 127.602 177.847 124.969C175.946 121.677 173.265 119.567 169.804 118.64C166.342 117.712 162.966 118.199 159.674 120.099C157.096 121.588 155.183 123.533 153.937 125.936C152.69 128.338 151.981 131.417 151.809 135.174C151.756 135.716 151.574 136.224 151.262 136.697C150.95 137.169 150.574 137.533 150.135 137.786C149.696 138.039 149.194 138.183 148.628 138.217C148.063 138.251 147.532 138.155 147.036 137.929Z" fill="#1C1B1F"/>
</g>
<path d="M168.576 179.039L161.367 177.385C152.424 175.453 144.182 173.243 136.64 170.757C129.097 168.274 123.631 164.097 120.242 158.227C117.549 153.564 116.87 148.743 118.204 143.766C119.537 138.792 122.535 134.958 127.198 132.266C129.831 130.746 132.808 129.85 136.127 129.578C139.445 129.309 142.911 129.961 146.524 131.532C146.97 127.617 148.14 124.289 150.034 121.548C151.927 118.811 154.19 116.682 156.823 115.162C161.487 112.469 166.305 111.79 171.28 113.122C176.257 114.456 180.092 117.455 182.784 122.118C186.205 128.043 187.08 134.943 185.41 142.819C183.74 150.697 181.53 158.905 178.779 167.443L176.593 174.3C176.075 176.063 175.047 177.387 173.511 178.274C171.975 179.161 170.33 179.416 168.576 179.039Z" fill="#EC6C6C"/>
</svg>
